<?xml version="1.0" encoding="utf-8"?>
<!-- Generator: Adobe Illustrator 23.1.1, SVG Export Plug-In . SVG Version: 6.00 Build 0)  -->
<svg version="1.1" id="圖層_1" xmlns="http://www.w3.org/2000/svg" xmlns:xlink="http://www.w3.org/1999/xlink" x="0px" y="0px"
	 viewBox="0 0 120 120" style="enable-background:new 0 0 120 120;" xml:space="preserve">
<style type="text/css">
	.st0{fill:none;}
	.st1{fill:#333333;}
	.st2{fill:#FFFFDC;}
	.st3{fill:#111111;}
	.st4{fill:#444444;}
	.st5{fill:none;stroke:#111111;stroke-width:3;stroke-linecap:round;stroke-linejoin:round;}
	.st6{fill:#6ACC6C;stroke:#111111;stroke-width:3;stroke-linecap:round;stroke-linejoin:round;}
	.st7{fill:#FFFFFF;}
	.st8{fill:#EBEBCA;}
	.st9{fill:none;stroke:#EBEBCA;stroke-width:2;stroke-linecap:round;stroke-linejoin:round;}
</style>
<title>frog_icon</title>
<g>
	<g>
		<rect y="0" class="st0" width="120" height="120"/>
		<path class="st1" d="M90.5,58.8c-2,1.7-4.1,3.1-6.5,4.1v34.6h7.8C91.9,87.2,92.2,71.5,90.5,58.8z"/>
		<path class="st2" d="M60,67.5c-9.2,0-17.7-1.6-24.1-4.6v34.6h48.1V62.9C77.7,65.9,69.2,67.5,60,67.5z"/>
		<path class="st1" d="M29.5,58.8c-1.7,12.7-1.4,28.4-1.4,38.7h7.8V62.9C33.6,61.8,31.4,60.4,29.5,58.8z"/>
		<path class="st1" d="M72.5,66.4l-2.4,31.1h14V62.9C80.4,64.6,76.5,65.8,72.5,66.4z"/>
		<path class="st1" d="M35.9,62.9v34.6h14l-2.4-31.1C43.5,65.8,39.6,64.6,35.9,62.9z"/>
		<path class="st3" d="M45.4,66l0.1,0.4l2.4,31.1h2l-2.4-31.1C46.8,66.3,46.1,66.2,45.4,66z"/>
		<path class="st3" d="M74.6,66l-0.1,0.4l-2.4,31.1h-2l2.4-31.1C73.2,66.3,73.9,66.2,74.6,66z"/>
		<path class="st3" d="M81.1,64.1c-2.8,1-5.7,1.8-8.6,2.3l-1,13.3l8.3-6.2l-4.5-2.8l7.2-5.7L81.1,64.1z"/>
		<path class="st3" d="M38.9,64.1L37.5,65l7.2,5.7l-4.5,2.8l8.3,6.2l-1-13.3C44.6,65.9,41.7,65.1,38.9,64.1z"/>
		<polygon class="st1" points="69,61 51,61 56.8,72.6 55,95.6 60,100.5 65,95.6 63.2,72.6 		"/>
		<polygon class="st4" points="55,95 64.2,85.8 64.1,83.7 55.2,92.6 		"/>
		<polygon class="st4" points="55.5,89.6 63.9,81.2 63.7,79.1 55.7,87.1 		"/>
		<polygon class="st4" points="55.9,84.2 63.5,76.6 63.3,74.5 56.1,81.7 		"/>
		<polyline class="st5" points="35.9,97.5 35.9,40.3 84.1,40.3 84.1,97.5 		"/>
		<polygon class="st5" points="69,61 51,61 56.8,72.6 55,95.6 60,100.5 65,95.6 63.2,72.6 		"/>
		<path class="st5" d="M91.9,97.5c0-10.3,0.3-26-1.4-38.7"/>
		<path class="st5" d="M28.1,97.5c0-10.3-0.4-26,1.4-38.7"/>
		<path class="st6" d="M93,38.5c3.9-5.4,2.6-12.9-2.8-16.7s-12.9-2.6-16.7,2.8c-0.4,0.6-0.8,1.2-1.1,1.9c-8.2-1.8-16.6-1.8-24.8,0
			c-2.8-6-10-8.6-16-5.8s-8.6,10-5.8,16c0.3,0.7,0.7,1.3,1.1,1.9c-1.9,2.6-3,5.8-3,9C24,60,40.1,40,60,40s36,20,36,7.6
			C96,44.3,94.9,41.2,93,38.5z"/>
		<circle class="st7" cx="83.2" cy="31.5" r="7.5"/>
		<circle class="st7" cx="36.8" cy="31.5" r="7.5"/>
		<path class="st2" d="M60,40.1c-19.9,0-36,19.9-36,7.5C24,60,40.1,67.5,60,67.5S96,60,96,47.6C96,60,79.9,40.1,60,40.1z"/>
		<path class="st8" d="M91.9,51.4c-6,6.4-18,10.1-31.9,10.1s-25.9-3.7-31.9-10.1c-2.6,0.7-4.1-0.1-4.1-3.8C24,60,40.1,67.5,60,67.5
			S96,60,96,47.6C96,51.3,94.5,52.1,91.9,51.4z"/>
		<path class="st9" d="M63.5,45c-2.3-0.6-4.8-0.6-7.1,0"/>
		<circle class="st3" cx="83.2" cy="31.5" r="6"/>
		<circle class="st7" cx="85.2" cy="29.5" r="1.5"/>
		<circle class="st3" cx="36.8" cy="31.5" r="6"/>
		<circle class="st7" cx="38.8" cy="29.5" r="1.5"/>
		<path class="st5" d="M60,40.1c-19.9,0-36,19.9-36,7.5C24,60,40.1,67.5,60,67.5S96,60,96,47.6C96,60,79.9,40.1,60,40.1z"/>
	</g>
</g>
</svg>
