<svg xmlns="http://www.w3.org/2000/svg" xmlns:xlink="http://www.w3.org/1999/xlink" viewBox="0 0 408.06 71.74"><defs><style>.cls-1{fill:#00b6c2;}.cls-2{fill:#fff;}.cls-3{fill:#72bd6e;}.cls-4{fill:#22acb6;}.cls-5{fill:#231815;}.cls-6{fill:#6acc6c;}.cls-7{fill:url(#未命名漸層_18);}.cls-8{fill:#fafad8;}.cls-9{fill:url(#未命名漸層_13);}.cls-10{fill:url(#未命名漸層_299);}.cls-11{fill:#56a857;}.cls-12{fill:#333;}.cls-13{fill:#5cb55d;}.cls-14{fill:url(#未命名漸層_39);}.cls-15{fill:url(#未命名漸層_28);}</style><linearGradient id="未命名漸層_18" x1="132.35" y1="-240.58" x2="144.18" y2="-252.42" gradientTransform="translate(-83.88 278.28)" gradientUnits="userSpaceOnUse"><stop offset="0" stop-color="#5cb35e"/><stop offset="0.11" stop-color="#5db45f" stop-opacity="0.95"/><stop offset="0.29" stop-color="#5fb861" stop-opacity="0.81"/><stop offset="0.52" stop-color="#62bd64" stop-opacity="0.59"/><stop offset="0.78" stop-color="#66c568" stop-opacity="0.29"/><stop offset="1" stop-color="#6acc6c" stop-opacity="0"/></linearGradient><linearGradient id="未命名漸層_13" x1="137.02" y1="-245.57" x2="143.66" y2="-245.57" gradientTransform="translate(-83.88 278.28)" gradientUnits="userSpaceOnUse"><stop offset="0" stop-color="#55a356"/><stop offset="0.12" stop-color="#56a557" stop-opacity="0.95"/><stop offset="0.31" stop-color="#59ab5a" stop-opacity="0.8"/><stop offset="0.55" stop-color="#5eb560" stop-opacity="0.55"/><stop offset="0.83" stop-color="#65c367" stop-opacity="0.22"/><stop offset="1" stop-color="#6acc6c" stop-opacity="0"/></linearGradient><linearGradient id="未命名漸層_299" x1="111.23" y1="-244.8" x2="131.7" y2="-224.33" gradientTransform="translate(-83.88 278.28)" gradientUnits="userSpaceOnUse"><stop offset="0" stop-color="#fafad8" stop-opacity="0"/><stop offset="0.09" stop-color="#f9f9d7" stop-opacity="0.04"/><stop offset="0.25" stop-color="#f5f5d4" stop-opacity="0.15"/><stop offset="0.45" stop-color="#f0f0cf" stop-opacity="0.33"/><stop offset="0.67" stop-color="#e8e8c8" stop-opacity="0.59"/><stop offset="0.93" stop-color="#dedec0" stop-opacity="0.9"/><stop offset="1" stop-color="#dbdbbd"/></linearGradient><linearGradient id="未命名漸層_39" x1="111.23" y1="-244.8" x2="131.7" y2="-224.33" gradientTransform="translate(-83.88 278.28)" gradientUnits="userSpaceOnUse"><stop offset="0" stop-color="#fafad8" stop-opacity="0"/><stop offset="0.1" stop-color="#f8f8d6" stop-opacity="0.05"/><stop offset="0.27" stop-color="#f1f1d0" stop-opacity="0.17"/><stop offset="0.48" stop-color="#e7e7c7" stop-opacity="0.37"/><stop offset="0.72" stop-color="#d9d9bb" stop-opacity="0.64"/><stop offset="1" stop-color="#c7c7ab" stop-opacity="0.99"/><stop offset="1" stop-color="#c7c7ab"/></linearGradient><linearGradient id="未命名漸層_28" x1="133.32" y1="-252.45" x2="138.83" y2="-246.95" gradientTransform="translate(-83.88 278.28)" gradientUnits="userSpaceOnUse"><stop offset="0" stop-color="#333" stop-opacity="0"/><stop offset="1" stop-color="#222"/></linearGradient></defs><title>資產 1</title><g id="圖層_2" data-name="圖層 2"><g id="圖層_1-2" data-name="圖層 1"><circle class="cls-1" cx="35.87" cy="35.87" r="35.87"/><circle class="cls-2" cx="35.87" cy="35.87" r="29.89"/><path class="cls-3" d="M94.24,48.63H88A1.37,1.37,0,0,0,86.61,50v8.59a1.37,1.37,0,1,0,2.74,0V56.05h2.54a1.37,1.37,0,1,0,0-2.73H89.35v-2h4.89a1.37,1.37,0,0,0,0-2.73Z"/><path class="cls-3" d="M148.17,48.63h-6.25a1.37,1.37,0,1,0,0,2.73h4.89v4.11a1.76,1.76,0,1,1-3.52,0,1.37,1.37,0,0,0-2.74,0,4.5,4.5,0,0,0,9,0V50A1.37,1.37,0,0,0,148.17,48.63Z"/><path class="cls-3" d="M105.67,58.09l-1.18-3a3.7,3.7,0,0,0-2.44-6.5H98.14A1.36,1.36,0,0,0,96.78,50v8.59a1.37,1.37,0,1,0,2.73,0V56.05h2.4l1.22,3.05a1.35,1.35,0,0,0,1.27.86,1.43,1.43,0,0,0,.5-.09A1.37,1.37,0,0,0,105.67,58.09Zm-6.16-6.73h2.54a1,1,0,0,1,0,2H99.51Z"/><path class="cls-3" d="M176.32,48.63h-3.91A1.37,1.37,0,0,0,171,50v8.59a1.37,1.37,0,1,0,2.73,0V56.05h2.55a3.71,3.71,0,1,0,0-7.42Zm0,4.69h-2.55v-2h2.55a1,1,0,0,1,0,2Z"/><path class="cls-3" d="M112.61,60a5.67,5.67,0,1,1,5.66-5.67A5.67,5.67,0,0,1,112.61,60Zm0-8.6a2.94,2.94,0,1,0,2.93,2.93A2.94,2.94,0,0,0,112.61,51.36Z"/><path class="cls-3" d="M125.11,60a5.67,5.67,0,0,1,0-11.33,5.61,5.61,0,0,1,2.58.62,1.37,1.37,0,1,1-1.25,2.43,2.9,2.9,0,0,0-1.33-.32,2.94,2.94,0,0,0,0,5.87,2.88,2.88,0,0,0,.59-.06V55.66h-.59a1.37,1.37,0,0,1,0-2.73h2a1.37,1.37,0,0,1,1.37,1.36v3.83a1.36,1.36,0,0,1-.75,1.22A5.61,5.61,0,0,1,125.11,60Z"/><path class="cls-3" d="M136.06,56.05h-3.13a1.37,1.37,0,1,1,0-2.73h3.13a1.37,1.37,0,0,1,0,2.73Z"/><path class="cls-3" d="M155.21,60a4.5,4.5,0,0,1-4.5-4.49V50a1.37,1.37,0,0,1,2.74,0v5.47a1.76,1.76,0,1,0,3.52,0V50a1.37,1.37,0,1,1,2.73,0v5.47A4.49,4.49,0,0,1,155.21,60Z"/><path class="cls-4" d="M214.62,60a1.37,1.37,0,0,1-1.37-1.37V54.51l-.62.93a1.37,1.37,0,0,1-2.28,0l-.62-.93v4.08a1.37,1.37,0,1,1-2.73,0V50a1.35,1.35,0,0,1,1-1.31,1.34,1.34,0,0,1,1.53.55l2,3,2-3A1.37,1.37,0,0,1,216,50v8.59A1.37,1.37,0,0,1,214.62,60Z"/><path class="cls-3" d="M168.5,60a1.37,1.37,0,0,1-1.37-1.37V54.51l-.62.93a1.37,1.37,0,0,1-2.28,0l-.62-.93v4.08a1.37,1.37,0,1,1-2.73,0V50a1.36,1.36,0,0,1,2.5-.76l2,3,2-3a1.34,1.34,0,0,1,1.53-.55,1.36,1.36,0,0,1,1,1.31v8.59A1.37,1.37,0,0,1,168.5,60Z"/><path class="cls-4" d="M200.16,60a5.67,5.67,0,1,1,5.66-5.67A5.67,5.67,0,0,1,200.16,60Zm0-8.6a2.94,2.94,0,1,0,2.93,2.93A2.93,2.93,0,0,0,200.16,51.36Z"/><path class="cls-4" d="M190.78,60a5.67,5.67,0,1,1,0-11.33,5.6,5.6,0,0,1,2.57.62,1.36,1.36,0,1,1-1.24,2.43,2.94,2.94,0,1,0,0,5.23,1.36,1.36,0,1,1,1.24,2.43A5.6,5.6,0,0,1,190.78,60Z"/><path class="cls-4" d="M182.57,60a1.24,1.24,0,0,1-.27,0,1,1,0,0,1-.25-.07,1.36,1.36,0,0,1-.24-.13,1.29,1.29,0,0,1-.38-.38,1,1,0,0,1-.12-.23,1.29,1.29,0,0,1-.08-.26,1.24,1.24,0,0,1,0-.27,1.37,1.37,0,0,1,.4-1,.87.87,0,0,1,.21-.17.92.92,0,0,1,.24-.13l.25-.08a1.63,1.63,0,0,1,.54,0l.25.08a1.41,1.41,0,0,1,.24.13,1.57,1.57,0,0,1,.21.17,1.37,1.37,0,0,1,.4,1,1.24,1.24,0,0,1,0,.27,1.29,1.29,0,0,1-.08.26,1,1,0,0,1-.12.23,1.2,1.2,0,0,1-.17.21l-.21.17-.24.13a1.17,1.17,0,0,1-.25.07A1.24,1.24,0,0,1,182.57,60Z"/><path class="cls-5" d="M95.2,20.42c-.72,1.47-1.57,3-2.52,4.55h0V42.55H89.08V30.08a29.94,29.94,0,0,1-2.36,2.68,32.25,32.25,0,0,0-2.13-3.63,35.58,35.58,0,0,0,7.14-9.95Zm-.56-7a53.84,53.84,0,0,1-8,9.14,24.77,24.77,0,0,0-1.8-3.21A33.14,33.14,0,0,0,91.17,12Zm-1.7,26.26a17.54,17.54,0,0,0,2.55-6.06l3,1.15a22.94,22.94,0,0,1-2.59,6.58Zm22.62-7.37h-9.92c.69,1.15,1.44,2.56,1.87,3.47l-3,1.08a43.7,43.7,0,0,0-2-4l1.67-.56H94.44V29.19h21.12ZM102.66,19c.07-.52.13-1.08.2-1.67h-8V14.3h8.25c.07-.89.1-1.67.13-2.43l4.13.14-.33,2.29h8.38v3.07h-8.81c-.1.59-.19,1.15-.26,1.67h8.09v8.68H96.05V19Zm4.13,20.17c.91,0,1.11-.36,1.21-2.72a10.51,10.51,0,0,0,3,1.15c-.36,3.57-1.28,4.45-3.8,4.45h-4.06c-3.37,0-4.19-.92-4.19-3.76v-4h3.4v4c0,.82.2.92,1.28.92Zm-5.47-17.42H99.09V25h2.23Zm4.94,0H104V25h2.29ZM108.88,25h2.39V21.79h-2.39Zm3.5,8.45a23.8,23.8,0,0,1,3.47,6.18l-3,1.38a21.25,21.25,0,0,0-3.27-6.29Z"/><path class="cls-5" d="M145.71,34.46A17.46,17.46,0,0,1,141.88,38a3.94,3.94,0,0,0,2.45.95c.79,0,1-.59,1.15-2.42a7.84,7.84,0,0,0,2.85,1.5c-.53,3.67-1.61,4.46-4.19,4.46a7.71,7.71,0,0,1-5.6-2.52,38.08,38.08,0,0,1-6.65,2.52A18,18,0,0,0,130,39.44a36.26,36.26,0,0,0,6.58-2.06,17.93,17.93,0,0,1-1.64-3.9h-6.38v1.25l4.91-.27,0,2.62-4.87.4v1.66c0,1.74-.36,2.49-1.58,2.92a16.86,16.86,0,0,1-5.36.49,12.66,12.66,0,0,0-1.12-3,33.26,33.26,0,0,0,3.7,0c.49,0,.66-.13.66-.55V37.74c-2.3.19-4.46.32-6.29.46l-.29-3c1.8-.07,4.09-.17,6.58-.3V33.48h-6.49V30.63h6.49V29.32c-1.74.17-3.51.27-5.11.3a10.81,10.81,0,0,0-.82-2.33A80.46,80.46,0,0,0,130.45,26h-12V23H131V21.79h-9.3V19.11H131V17.93h-11V15.05h5.8a13.07,13.07,0,0,0-1.25-2L127.87,12a10.46,10.46,0,0,1,2,3h6.59a20.09,20.09,0,0,0,1.44-3.14l4.32.82c-.59.85-1.18,1.67-1.71,2.32h5.67v2.88H134.94v1.18h9.49v2.68h-9.49V23h12.67V26h-6.48a23.15,23.15,0,0,1,5.17,2.75l-1.74,1.93h3.21v2.85h-4.91Zm-11.49-3.83a33.14,33.14,0,0,1-.52-4.25h3.73a24.66,24.66,0,0,0,.55,4.25h5.41a22,22,0,0,0-4.78-2.55l2-2.13H131l2.12,2.2c-1.34.29-2.88.55-4.51.78v1.7Zm4.65,2.85a12.76,12.76,0,0,0,1,2.1,12.61,12.61,0,0,0,2.39-2.1Z"/><path class="cls-5" d="M171.28,17.8c1.76,1.74,5.23,2.55,9.65,2.78a12.94,12.94,0,0,0-2.16,3.11c-3.66-.46-6.51-1.5-8.57-3.3-1.25,1.44-4,2.71-9.47,3.34a10.89,10.89,0,0,0-1.3-2.13h-8.68v-3h9.89v2c6.25-.66,7.07-2.13,7.07-3.34v-.49h-2a13.86,13.86,0,0,1-2.29,2.81,18.59,18.59,0,0,0-2.88-2,13.12,13.12,0,0,0,3.83-5.82l3.41.75c-.17.49-.36,1-.56,1.44h9.3l.59-.16,2.65.81a28.82,28.82,0,0,1-3,5.18l-3-1.12a19.59,19.59,0,0,0,1.15-1.89h-3.63v1Zm.88,19.25c3,1.11,6.22,2.42,8.15,3.37l-3.5,2.1a60.63,60.63,0,0,0-8.51-3.87l2-1.6h-9.23l2.85,1.31a42.3,42.3,0,0,1-10.21,4.25,26.69,26.69,0,0,0-2.88-2.84,37.13,37.13,0,0,0,8.93-2.72H155V23.76h21.9V37.05ZM159.88,16.43H151.5V13.58h8.38ZM158.8,27.49H173V26.08H158.8Zm0,3.6H173V29.68H158.8Zm0,3.67H173V33.28H158.8Z"/><path class="cls-5" d="M195.4,20.45h-12V17.37h5.21a29.42,29.42,0,0,0-1.94-4.12l2.79-1.41a34.18,34.18,0,0,1,2.19,4.36l-2,1.17h5.73Zm-10.64,4.42V21.93h9.5v2.94Zm0,1.44h9.56v3h-9.56Zm9.56,14.44h-6.55v1.37h-3V30.83h9.52Zm-6.55-6.81v3.67h3.47V33.94Zm22.79-20.3c-.3,10.77-.26,24.2.95,24.59a17.4,17.4,0,0,0,.42-4.16,18.58,18.58,0,0,0,2,3.14c-.49,4.78-2.16,5.8-4.19,4.95-3.11-1.31-3.14-12.64-3.11-24.82h-4V26h3.15v3.64H202.7v12.9h-3.63V29.62H195.4V26h3.67V17.34h-3.21v-3.7Z"/><path class="cls-5" d="M245.55,26.87a20.55,20.55,0,0,1-5.43,9.82,24.43,24.43,0,0,0,6.38,2.42A15.49,15.49,0,0,0,244,42.48a22.31,22.31,0,0,1-7-3.27,27.75,27.75,0,0,1-7.14,3.14,13,13,0,0,0-1.93-3.24,2.86,2.86,0,0,1-1.21,2.42c-.92.63-2.23.72-4.13.72a13.62,13.62,0,0,0-1-3.63c1,0,2,0,2.36,0s.49-.13.49-.52V31.62c-.88.55-1.7,1.11-2.52,1.6L221,30.86a41.1,41.1,0,0,1-2,11.69,14.76,14.76,0,0,0-3.11-1.77c1.7-4.48,1.8-11,1.8-15.78V13.12h10.31v9.79c3.54-1.77,4-4.13,4-6.26v-3.5h11v7.17c0,.95.07,1.31.46,1.31h1.28a6.79,6.79,0,0,0,1.6-.23c.1,1,.17,2.23.3,3.11a6.66,6.66,0,0,1-1.87.2H243c-3.11,0-3.73-1.31-3.73-4.45V16.75h-3.83v0a9.22,9.22,0,0,1-5.24,8.87,15.63,15.63,0,0,0-2.26-2.43v15a6,6,0,0,1,0,.75A23.28,23.28,0,0,0,234,36.62a23.21,23.21,0,0,1-4.19-6.38l1.6-.49h-2.36V26.12h13.33l.72-.17ZM221.13,25c0,1.34,0,2.88-.1,4.45,1-.33,2.13-.75,3.41-1.24V24.61l-1.31,1.05a28.91,28.91,0,0,0-2-2.49Zm0-8.35v4.06l.92-.65c.78.75,1.67,1.63,2.39,2.45V16.62Zm12.31,13.13A15.84,15.84,0,0,0,237,34.4a15.27,15.27,0,0,0,3.54-4.65Z"/><path class="cls-5" d="M259.14,13.25A60.09,60.09,0,0,1,256,20.06V42.48h-3.83V26c-.69.89-1.38,1.67-2.07,2.43A22.35,22.35,0,0,0,248,24.35a34.43,34.43,0,0,0,7.46-12.28Zm14.4-.33c.92,3.93,3.08,7.83,5.93,10A22.1,22.1,0,0,0,277.08,27a15.79,15.79,0,0,1-1.28-1.31c0,.36,0,.82,0,1.08-.39,9.2-.75,12.77-1.7,14a3.19,3.19,0,0,1-2.36,1.37,16.92,16.92,0,0,1-3.67.13,9.31,9.31,0,0,0-1-3.53,22.8,22.8,0,0,0,2.68.13,1.13,1.13,0,0,0,1-.46c.52-.69.85-3.17,1.14-9.56h-4.12c-.85,6.58-3.11,10.87-7.89,13.56a16.11,16.11,0,0,0-2.59-2.89c4.16-2,6.06-5.5,6.68-10.67h-3V25.46c-.43.49-.88.95-1.34,1.38a30,30,0,0,0-2.39-3.61A20.2,20.2,0,0,0,263,13.45l3.84,1a29.34,29.34,0,0,1-5.73,10.8h14.24a29.25,29.25,0,0,1-4.78-8.58h-2.92V12.92Z"/><path class="cls-5" d="M293.68,19.57a21.57,21.57,0,0,1-1.31,2.58h15.22V38.33c0,1.93-.36,3-1.7,3.56s-3.15.66-5.8.66a16.12,16.12,0,0,0-1.18-3.77c1.67.1,3.57.1,4.13.1s.75-.19.75-.65v-2H291.48a11.38,11.38,0,0,1-3.63,6.52,13.54,13.54,0,0,0-2.82-3c2.82-2.46,3.05-6,3.05-9V28.15A27,27,0,0,1,284,31.71a22.37,22.37,0,0,0-2.56-3,24.74,24.74,0,0,0,7.86-9.13h-7.1V15.9H291a38.18,38.18,0,0,0,1.31-4l4,.92c-.33,1-.69,2-1.05,3h16v3.67ZM303.79,33V30.89H292c0,.69,0,1.38-.07,2.13Zm0-7.43H292v2.06h11.75Z"/><path class="cls-5" d="M326.51,14.56c-.85,2.75-1.93,6.06-2.82,8.58A10.57,10.57,0,0,1,326.05,30c0,2.09-.42,3.5-1.47,4.28a3.9,3.9,0,0,1-1.83.72,11.19,11.19,0,0,1-2.13.07,8,8,0,0,0-.85-3.34,9.82,9.82,0,0,0,1.4,0,1.34,1.34,0,0,0,.89-.26,2.47,2.47,0,0,0,.59-1.93,9.27,9.27,0,0,0-2.29-6c.62-2,1.34-4.65,1.86-6.81h-3.17V42.48h-3.41V13.25h7.79l.53-.16Zm17.64,16.83c-1.4,1.11-3.11,2.35-4.58,3.3a13.53,13.53,0,0,0,5.31,4.39,13.8,13.8,0,0,0-2.59,3.37c-4.88-2.68-7.5-7.72-9-14.14h-2v9.2l4.55-1A24.08,24.08,0,0,0,336,40c-6.38,1.64-7.59,2.13-8.38,2.62a12.35,12.35,0,0,0-1.67-3,3.21,3.21,0,0,0,1.51-2.85V13.28h14.8v15h-5.67a23.51,23.51,0,0,0,1.31,3.57,32.76,32.76,0,0,0,3.73-3.24ZM331.29,16.62v2.56h7.2V16.62Zm0,8.32h7.2V22.32h-7.2Z"/><path class="cls-5" d="M359.83,14.1a49.33,49.33,0,0,1-9.75,14.34,38.16,38.16,0,0,0-3.47-3.34,34.15,34.15,0,0,0,8.87-12.41Zm9.17,15a105,105,0,0,1,7.27,11.29l-4,2.13a33.45,33.45,0,0,0-1.7-3.21c-15.81,1.25-18,1.44-19.64,2a35,35,0,0,0-1.61-4.16c1.08-.29,2-1.18,3.28-2.62a59.83,59.83,0,0,0,8.05-12.4l4.55,1.9a73.4,73.4,0,0,1-8.84,12.34l12-.79c-1.05-1.64-2.13-3.34-3.15-4.78Zm.62-16.37C371,17.34,374,22,378,24.41a20.18,20.18,0,0,0-3,3.93,29,29,0,0,1-8.48-11.55h-5.24v-4Z"/><path class="cls-5" d="M408.06,37.61c0,2.22-.4,3.4-1.81,4.09s-3.43.78-6.35.75a16.17,16.17,0,0,0-1.27-4.22,44.18,44.18,0,0,0,4.61.06c.59,0,.82-.16.82-.72V17.64H381.21v-3.7h26.85Zm-7.27-14.24H381.54V20h19.25ZM387,36.85v2.36h-3.8V25.79h15.88V36.85Zm0-7.72v4.38h8.25V29.13Z"/><path class="cls-6" d="M58.1,32.23a7.89,7.89,0,0,0,1.15-4.89A8.17,8.17,0,0,0,52,20.12a7.94,7.94,0,0,0-7.37,3.62,1.64,1.64,0,0,1-1.67.73,37.85,37.85,0,0,0-14.18,0,1.64,1.64,0,0,1-1.67-.73,7.94,7.94,0,0,0-7.37-3.62,8.17,8.17,0,0,0-7.25,7.22,7.89,7.89,0,0,0,1.15,4.89,1,1,0,0,1,0,1A10.23,10.23,0,0,0,12,38.75c0,8.25,10.7-5,23.91-5s23.91,13.24,23.91,5a10.23,10.23,0,0,0-1.66-5.49A1,1,0,0,1,58.1,32.23Z"/><path class="cls-7" d="M47.42,36.65c7.37,3.35,12.36,7.73,12.36,2.1a10.23,10.23,0,0,0-1.66-5.49,1,1,0,0,1,0-1,7.89,7.89,0,0,0,1.15-4.89A8.17,8.17,0,0,0,52,20.12S53,29.23,47.42,36.65Z"/><path class="cls-8" d="M35.87,33.76c-11.07,0-20.39,9.31-23.11,7.45,2,6.56,11.57,10.44,23.11,10.44S57,47.77,59,41.21C56.26,43.07,46.94,33.76,35.87,33.76Z"/><path class="cls-9" d="M53.14,39.54c4.12,2.15,6.64,3.21,6.64-.79a10.23,10.23,0,0,0-1.66-5.49,1,1,0,0,1,0-1,7.89,7.89,0,0,0,1.15-4.89A7.67,7.67,0,0,0,58.09,24S58.29,32.54,53.14,39.54Z"/><path class="cls-10" d="M47.42,36.65c-4.64,6.18-13.86,11.18-32,8.78,4,4,11.68,6.22,20.47,6.22C47.41,51.65,57,47.77,59,41.21,57.29,42.36,53.05,39.21,47.42,36.65Z"/><circle class="cls-11" cx="20.43" cy="28.06" r="5.86"/><circle class="cls-12" cx="20.43" cy="28.06" r="4.88"/><circle class="cls-11" cx="51.31" cy="28.06" r="5.86"/><circle class="cls-2" cx="22.05" cy="26.44" r="0.98"/><path class="cls-13" d="M35.87,32.76c-12.93,0-23.46,12.68-23.9,5.47,0,.17,0,.34,0,.52,0,8.25,10.7-5,23.91-5s23.91,13.24,23.91,5c0-.18,0-.35,0-.52C59.33,45.44,48.8,32.76,35.87,32.76Z"/><path class="cls-14" d="M59,41.21c-1,.72-3.09-.23-5.84-1.67-5.2,7.09-15.87,12.56-37.74,5.89,4,4,11.68,6.22,20.47,6.22C47.41,51.65,57,47.77,59,41.21Z"/><circle class="cls-12" cx="51.31" cy="28.06" r="4.88"/><path class="cls-15" d="M51.31,33A4.89,4.89,0,0,0,52,23.23a26.35,26.35,0,0,1-2.26,9.47A4.92,4.92,0,0,0,51.31,33Z"/><circle class="cls-2" cx="52.94" cy="26.44" r="0.98"/></g></g></svg>